v 0 0.5 -0.714286
v 0.785714 0.5 -0.928571
v 0.0714286 0.5 -0.214286
v 0.0714286 0.5 -0.428571
v 0 0.5 -1
v 0.0714286 0.5 -0.142857
v 0.0714286 0.5 -0.285714
v 0 0.5 -0.928571
v 0 0.5 -0.0714286
v 0 0.5 -0
v 0.0714286 0.5 -0.714286
v 0.642857 0.5 -0.642857
v 0 0.5 -0.214286
v 0 0.5 -0.428571
v 0.0714286 0.5 -1
v 0 0.5 -0.142857
v 0 0.5 -0.285714
v 0.0714286 0.5 -0
v 0.785714 0.5 -0.428571
v 0.785714 0.5 -0.214286
v 0.0714286 0.5 -0.928571
v 0.0714286 0.5 -0.0714286
v 0.0714286 0.5 -0.571429
v 0 0.5 -0.357143
v 0.785714 0.5 -0.785714
v 0 0.5 -0.571429
v 0.0714286 0.5 -0.357143
v 0.0714286 0.5 -0.857143
v 0 0.5 -0.5
v 0 0.5 -0.857143
v 0.0714286 0.5 -0.5
v 0.642857 0.5 -0.428571
v 0.642857 0.5 -0.214286
v 0 0.5 -0.642857
v 0.0714286 0.5 -0.642857
v 0.785714 0.5 -0.571429
v 0 0.5 -0.785714
v 0.0714286 0.5 -0.785714
v 0.5 0.5 -0.357143
v 0.428571 0.5 -0.714286
v 0.142857 0.5 -0.0714286
v 0.285714 0.5 -0.0714286
v 0.214286 0.5 -0.714286
v 0.285714 0.5 -0.928571
v 0.142857 0.5 -0.928571
v 0.142857 0.5 -0
v 0.214286 0.5 -0.857143
v 0.285714 0.5 -0
v 0.285714 0.5 -0.285714
v 0.142857 0.5 -0.142857
v 0.142857 0.5 -0.285714
v 0.285714 0.5 -0.142857
v 0.285714 0.5 -0.428571
v 0.142857 0.5 -0.214286
v 0.142857 0.5 -0.428571
v 0.285714 0.5 -0.214286
v 0.5 0.5 -0.0714286
v 0.357143 0.5 -1
v 0.285714 0.5 -0.357143
v 0.142857 0.5 -0.357143
v 0.357143 0.5 -0.714286
v 0.285714 0.5 -0.5
v 0.142857 0.5 -0.5
v 0.214286 0.5 -0.785714
v 0.285714 0.5 -0.571429
v 0.142857 0.5 -0.571429
v 0.214286 0.5 -1
v 0.285714 0.5 -0.642857
v 0.142857 0.5 -0.642857
v 0.214286 0.5 -0.928571
v 0.214286 0.5 -0.0714286
v 0.428571 0.5 -0.0714286
v 0.357143 0.5 -0.5
v 0.285714 0.5 -0.714286
v 0.142857 0.5 -0.714286
v 0.214286 0.5 -0.571429
v 0.285714 0.5 -0.785714
v 0.142857 0.5 -0.785714
v 0.285714 0.5 -0.857143
v 0.142857 0.5 -0.857143
v 0.214286 0.5 -0
v 0.214286 0.5 -0.642857
v 0.357143 0.5 -0.357143
v 0.285714 0.5 -1
v 0.142857 0.5 -1
v 0.214286 0.5 -0.142857
v 0.214286 0.5 -0.285714
v 0.214286 0.5 -0.214286
v 0.214286 0.5 -0.428571
v 0.214286 0.5 -0.357143
v 0.214286 0.5 -0.5
v 0.5 0.5 -1
v 0.428571 0.5 -0.5
v 0.357143 0.5 -0.0714286
v 0.357143 0.5 -0
v 0.357143 0.5 -0.285714
v 0.357143 0.5 -0.142857
v 0.357143 0.5 -0.428571
v 0.357143 0.5 -0.214286
v 0.357143 0.5 -0.571429
v 0.357143 0.5 -0.642857
v 0.357143 0.5 -0.785714
v 0.357143 0.5 -0.857143
v 0.357143 0.5 -0.928571
v 0.428571 0.5 -0
v 0.428571 0.5 -0.285714
v 0.428571 0.5 -0.142857
v 0.428571 0.5 -0.428571
v 0.428571 0.5 -0.214286
v 0.5 0.5 -0.714286
v 0.428571 0.5 -0.357143
v 0.428571 0.5 -0.571429
v 0.428571 0.5 -0.642857
v 0.428571 0.5 -0.785714
v 0.428571 0.5 -0.857143
v 0.428571 0.5 -0.928571
v 0.5 0.5 -0.5
v 0.428571 0.5 -1
v 0.5 0.5 -0
v 0.5 0.5 -0.285714
v 0.5 0.5 -0.142857
v 0.5 0.5 -0.428571
v 0.5 0.5 -0.214286
v 0.5 0.5 -0.571429
v 0.5 0.5 -0.642857
v 0.5 0.5 -0.785714
v 0.5 0.5 -0.857143
v 0.5 0.5 -0.928571
v 0.571429 0.5 -0.0714286
v 0.571429 0.5 -0
v 0.571429 0.5 -0.285714
v 0.571429 0.5 -0.142857
v 0.571429 0.5 -0.428571
v 0.571429 0.5 -0.214286
v 0.571429 0.5 -0.357143
v 0.571429 0.5 -0.5
v 0.571429 0.5 -0.571429
v 0.571429 0.5 -0.642857
v 0.571429 0.5 -0.714286
v 0.571429 0.5 -0.785714
v 0.571429 0.5 -0.857143
v 0.571429 0.5 -0.928571
v 0.571429 0.5 -1
v 0.642857 0.5 -0.0714286
v 0.642857 0.5 -0
v 0.642857 0.5 -0.285714
v 0.642857 0.5 -0.142857
v 0.642857 0.5 -0.357143
v 0.642857 0.5 -0.5
v 0.642857 0.5 -0.571429
v 0.642857 0.5 -0.714286
v 0.642857 0.5 -0.785714
v 0.642857 0.5 -0.857143
v 0.642857 0.5 -0.928571
v 0.642857 0.5 -1
v 0.714286 0.5 -0.0714286
v 0.714286 0.5 -0
v 0.714286 0.5 -0.285714
v 0.714286 0.5 -0.142857
v 0.714286 0.5 -0.428571
v 0.714286 0.5 -0.214286
v 0.714286 0.5 -0.357143
v 0.714286 0.5 -0.5
v 0.714286 0.5 -0.571429
v 1 0.5 -0.714286
v 0.714286 0.5 -0.642857
v 1 0.5 -0.642857
v 0.714286 0.5 -0.714286
v 1 0.5 -0.857143
v 0.714286 0.5 -0.785714
v 1 0.5 -0.785714
v 0.714286 0.5 -0.857143
v 1 0.5 -1
v 0.714286 0.5 -0.928571
v 1 0.5 -0.928571
v 0.714286 0.5 -1
v 0.785714 0.5 -0.0714286
v 0.785714 0.5 -0
v 0.785714 0.5 -0.285714
v 0.785714 0.5 -0.142857
v 0.785714 0.5 -0.357143
v 0.785714 0.5 -0.5
v 0.785714 0.5 -0.642857
v 0.785714 0.5 -0.714286
v 0.785714 0.5 -0.857143
v 0.785714 0.5 -1
v 0.857143 0.5 -0.0714286
v 1 0.5 -0.5
v 0.857143 0.5 -0
v 0.857143 0.5 -0.285714
v 0.857143 0.5 -0.142857
v 0.857143 0.5 -0.428571
v 0.857143 0.5 -0.214286
v 0.857143 0.5 -0.357143
v 1 0.5 -0
v 0.857143 0.5 -0.5
v 0.857143 0.5 -0.571429
v 0.857143 0.5 -0.642857
v 0.857143 0.5 -0.714286
v 0.857143 0.5 -0.785714
v 0.857143 0.5 -0.857143
v 0.857143 0.5 -0.928571
v 0.857143 0.5 -1
v 0.928571 0.5 -0.0714286
v 0.928571 0.5 -0
v 0.928571 0.5 -0.285714
v 0.928571 0.5 -0.142857
v 0.928571 0.5 -0.428571
v 0.928571 0.5 -0.214286
v 0.928571 0.5 -0.357143
v 0.928571 0.5 -0.5
v 0.928571 0.5 -0.571429
v 0.928571 0.5 -0.642857
v 0.928571 0.5 -0.714286
v 0.928571 0.5 -0.785714
v 0.928571 0.5 -0.857143
v 0.928571 0.5 -0.928571
v 0.928571 0.5 -1
v 1 0.5 -0.0714286
v 1 0.5 -0.285714
v 1 0.5 -0.142857
v 1 0.5 -0.428571
v 1 0.5 -0.214286
v 1 0.5 -0.357143
v 1 0.5 -0.571429
vn 0 1 -0
vn 0 1 -0
vn 0 1 -0
vn 0 1 -0
vn 0 1 -0
vn 0 1 -0
vn 0 1 -0
vn 0 1 -0
vn 0 1 -0
vn 0 1 -0
vn 0 1 -0
vn 0 1 -0
vn 0 1 -0
vn 0 1 -0
vn 0 1 -0
vn 0 1 -0
vn 0 1 -0
vn 0 1 -0
vn 0 1 -0
vn 0 1 -0
vn 0 1 -0
vn 0 1 -0
vn 0 1 -0
vn 0 1 -0
vn 0 1 -0
vn 0 1 -0
vn 0 1 -0
vn 0 1 -0
vn 0 1 -0
vn 0 1 -0
vn 0 1 -0
vn 0 1 -0
vn 0 1 -0
vn 0 1 -0
vn 0 1 -0
vn 0 1 -0
vn 0 1 -0
vn 0 1 -0
vn 0 1 -0
vn 0 1 -0
vn 0 1 -0
vn 0 1 -0
vn 0 1 -0
vn 0 1 -0
vn 0 1 -0
vn 0 1 -0
vn 0 1 -0
vn 0 1 -0
vn 0 1 -0
vn 0 1 -0
vn 0 1 -0
vn 0 1 -0
vn 0 1 -0
vn 0 1 -0
vn 0 1 -0
vn 0 1 -0
vn 0 1 -0
vn 0 1 -0
vn 0 1 -0
vn 0 1 -0
vn 0 1 -0
vn 0 1 -0
vn 0 1 -0
vn 0 1 -0
vn 0 1 -0
vn 0 1 -0
vn 0 1 -0
vn 0 1 -0
vn 0 1 -0
vn 0 1 -0
vn 0 1 -0
vn 0 1 -0
vn 0 1 -0
vn 0 1 -0
vn 0 1 -0
vn 0 1 -0
vn 0 1 -0
vn 0 1 -0
vn 0 1 -0
vn 0 1 -0
vn 0 1 -0
vn 0 1 -0
vn 0 1 -0
vn 0 1 -0
vn 0 1 -0
vn 0 1 -0
vn 0 1 -0
vn 0 1 -0
vn 0 1 -0
vn 0 1 -0
vn 0 1 -0
vn 0 1 -0
vn 0 1 -0
vn 0 1 -0
vn 0 1 -0
vn 0 1 -0
vn 0 1 -0
vn 0 1 -0
vn 0 1 -0
vn 0 1 -0
vn 0 1 -0
vn 0 1 -0
vn 0 1 -0
vn 0 1 -0
vn 0 1 -0
vn 0 1 -0
vn 0 1 -0
vn 0 1 -0
vn 0 1 -0
vn 0 1 -0
vn 0 1 -0
vn 0 1 -0
vn 0 1 -0
vn 0 1 -0
vn 0 1 -0
vn 0 1 -0
vn 0 1 -0
vn 0 1 -0
vn 0 1 -0
vn 0 1 -0
vn 0 1 -0
vn 0 1 -0
vn 0 1 -0
vn 0 1 -0
vn 0 1 -0
vn 0 1 -0
vn 0 1 -0
vn 0 1 -0
vn 0 1 -0
vn 0 1 -0
vn 0 1 -0
vn 0 1 -0
vn 0 1 -0
vn 0 1 -0
vn 0 1 -0
vn 0 1 -0
vn 0 1 -0
vn 0 1 -0
vn 0 1 -0
vn 0 1 -0
vn 0 1 -0
vn 0 1 -0
vn 0 1 -0
vn 0 1 -0
vn 0 1 -0
vn 0 1 -0
vn 0 1 -0
vn 0 1 -0
vn 0 1 -0
vn 0 1 -0
vn 0 1 -0
vn 0 1 -0
vn 0 1 -0
vn 0 1 -0
vn 0 1 -0
vn 0 1 -0
vn 0 1 -0
vn 0 1 -0
vn 0 1 -0
vn 0 1 -0
vn 0 1 -0
vn 0 1 -0
vn 0 1 -0
vn 0 1 -0
vn 0 1 -0
vn 0 1 -0
vn 0 1 -0
vn 0 1 -0
vn 0 1 -0
vn 0 1 -0
vn 0 1 -0
vn 0 1 -0
vn 0 1 -0
vn 0 1 -0
vn 0 1 -0
vn 0 1 -0
vn 0 1 -0
vn 0 1 -0
vn 0 1 -0
vn 0 1 -0
vn 0 1 -0
vn 0 1 -0
vn 0 1 -0
vn 0 1 -0
vn 0 1 -0
vn 0 1 -0
vn 0 1 -0
vn 0 1 -0
vn 0 1 -0
vn 0 1 -0
vn 0 1 -0
vn 0 1 -0
vn 0 1 -0
vn 0 1 -0
vn 0 1 -0
vn 0 1 -0
vn 0 1 -0
vn 0 1 -0
vn 0 1 -0
vn 0 1 -0
vn 0 1 -0
vn 0 1 -0
vn 0 1 -0
vn 0 1 -0
vn 0 1 -0
vn 0 1 -0
vn 0 1 -0
vn 0 1 -0
vn 0 1 -0
vn 0 1 -0
vn 0 1 -0
vn 0 1 -0
vn 0 1 -0
vn 0 1 -0
vn 0 1 -0
vn 0 1 -0
vn 0 1 -0
vn 0 1 -0
vn 0 1 -0
vn 0 1 -0
vn 0 1 -0
vn 0 1 -0
vn 0 1 -0
vn 0 1 -0
vn 0 1 -0
f 9//9 10//10 22//22
f 22//22 10//10 18//18
f 16//16 9//9 6//6
f 6//6 9//9 22//22
f 13//13 16//16 3//3
f 3//3 16//16 6//6
f 17//17 13//13 7//7
f 7//7 13//13 3//3
f 24//24 17//17 27//27
f 27//27 17//17 7//7
f 14//14 24//24 4//4
f 4//4 24//24 27//27
f 29//29 14//14 31//31
f 31//31 14//14 4//4
f 26//26 29//29 23//23
f 23//23 29//29 31//31
f 34//34 26//26 35//35
f 35//35 26//26 23//23
f 1//1 34//34 11//11
f 11//11 34//34 35//35
f 37//37 1//1 38//38
f 38//38 1//1 11//11
f 30//30 37//37 28//28
f 28//28 37//37 38//38
f 8//8 30//30 21//21
f 21//21 30//30 28//28
f 5//5 8//8 15//15
f 15//15 8//8 21//21
f 22//22 18//18 41//41
f 41//41 18//18 46//46
f 6//6 22//22 50//50
f 50//50 22//22 41//41
f 3//3 6//6 54//54
f 54//54 6//6 50//50
f 7//7 3//3 51//51
f 51//51 3//3 54//54
f 27//27 7//7 60//60
f 60//60 7//7 51//51
f 4//4 27//27 55//55
f 55//55 27//27 60//60
f 31//31 4//4 63//63
f 63//63 4//4 55//55
f 23//23 31//31 66//66
f 66//66 31//31 63//63
f 35//35 23//23 69//69
f 69//69 23//23 66//66
f 11//11 35//35 75//75
f 75//75 35//35 69//69
f 38//38 11//11 78//78
f 78//78 11//11 75//75
f 28//28 38//38 80//80
f 80//80 38//38 78//78
f 21//21 28//28 45//45
f 45//45 28//28 80//80
f 15//15 21//21 85//85
f 85//85 21//21 45//45
f 41//41 46//46 71//71
f 71//71 46//46 81//81
f 50//50 41//41 86//86
f 86//86 41//41 71//71
f 54//54 50//50 88//88
f 88//88 50//50 86//86
f 51//51 54//54 87//87
f 87//87 54//54 88//88
f 60//60 51//51 90//90
f 90//90 51//51 87//87
f 55//55 60//60 89//89
f 89//89 60//60 90//90
f 63//63 55//55 91//91
f 91//91 55//55 89//89
f 66//66 63//63 76//76
f 76//76 63//63 91//91
f 69//69 66//66 82//82
f 82//82 66//66 76//76
f 75//75 69//69 43//43
f 43//43 69//69 82//82
f 78//78 75//75 64//64
f 64//64 75//75 43//43
f 80//80 78//78 47//47
f 47//47 78//78 64//64
f 45//45 80//80 70//70
f 70//70 80//80 47//47
f 85//85 45//45 67//67
f 67//67 45//45 70//70
f 71//71 81//81 42//42
f 42//42 81//81 48//48
f 86//86 71//71 52//52
f 52//52 71//71 42//42
f 88//88 86//86 56//56
f 56//56 86//86 52//52
f 87//87 88//88 49//49
f 49//49 88//88 56//56
f 90//90 87//87 59//59
f 59//59 87//87 49//49
f 89//89 90//90 53//53
f 53//53 90//90 59//59
f 91//91 89//89 62//62
f 62//62 89//89 53//53
f 76//76 91//91 65//65
f 65//65 91//91 62//62
f 82//82 76//76 68//68
f 68//68 76//76 65//65
f 43//43 82//82 74//74
f 74//74 82//82 68//68
f 64//64 43//43 77//77
f 77//77 43//43 74//74
f 47//47 64//64 79//79
f 79//79 64//64 77//77
f 70//70 47//47 44//44
f 44//44 47//47 79//79
f 67//67 70//70 84//84
f 84//84 70//70 44//44
f 42//42 48//48 94//94
f 94//94 48//48 95//95
f 52//52 42//42 97//97
f 97//97 42//42 94//94
f 56//56 52//52 99//99
f 99//99 52//52 97//97
f 49//49 56//56 96//96
f 96//96 56//56 99//99
f 59//59 49//49 83//83
f 83//83 49//49 96//96
f 53//53 59//59 98//98
f 98//98 59//59 83//83
f 62//62 53//53 73//73
f 73//73 53//53 98//98
f 65//65 62//62 100//100
f 100//100 62//62 73//73
f 68//68 65//65 101//101
f 101//101 65//65 100//100
f 74//74 68//68 61//61
f 61//61 68//68 101//101
f 77//77 74//74 102//102
f 102//102 74//74 61//61
f 79//79 77//77 103//103
f 103//103 77//77 102//102
f 44//44 79//79 104//104
f 104//104 79//79 103//103
f 84//84 44//44 58//58
f 58//58 44//44 104//104
f 94//94 95//95 72//72
f 72//72 95//95 105//105
f 97//97 94//94 107//107
f 107//107 94//94 72//72
f 99//99 97//97 109//109
f 109//109 97//97 107//107
f 96//96 99//99 106//106
f 106//106 99//99 109//109
f 83//83 96//96 111//111
f 111//111 96//96 106//106
f 98//98 83//83 108//108
f 108//108 83//83 111//111
f 73//73 98//98 93//93
f 93//93 98//98 108//108
f 100//100 73//73 112//112
f 112//112 73//73 93//93
f 101//101 100//100 113//113
f 113//113 100//100 112//112
f 61//61 101//101 40//40
f 40//40 101//101 113//113
f 102//102 61//61 114//114
f 114//114 61//61 40//40
f 103//103 102//102 115//115
f 115//115 102//102 114//114
f 104//104 103//103 116//116
f 116//116 103//103 115//115
f 58//58 104//104 118//118
f 118//118 104//104 116//116
f 72//72 105//105 57//57
f 57//57 105//105 119//119
f 107//107 72//72 121//121
f 121//121 72//72 57//57
f 109//109 107//107 123//123
f 123//123 107//107 121//121
f 106//106 109//109 120//120
f 120//120 109//109 123//123
f 111//111 106//106 39//39
f 39//39 106//106 120//120
f 108//108 111//111 122//122
f 122//122 111//111 39//39
f 93//93 108//108 117//117
f 117//117 108//108 122//122
f 112//112 93//93 124//124
f 124//124 93//93 117//117
f 113//113 112//112 125//125
f 125//125 112//112 124//124
f 40//40 113//113 110//110
f 110//110 113//113 125//125
f 114//114 40//40 126//126
f 126//126 40//40 110//110
f 115//115 114//114 127//127
f 127//127 114//114 126//126
f 116//116 115//115 128//128
f 128//128 115//115 127//127
f 118//118 116//116 92//92
f 92//92 116//116 128//128
f 57//57 119//119 129//129
f 129//129 119//119 130//130
f 121//121 57//57 132//132
f 132//132 57//57 129//129
f 123//123 121//121 134//134
f 134//134 121//121 132//132
f 120//120 123//123 131//131
f 131//131 123//123 134//134
f 39//39 120//120 135//135
f 135//135 120//120 131//131
f 122//122 39//39 133//133
f 133//133 39//39 135//135
f 117//117 122//122 136//136
f 136//136 122//122 133//133
f 124//124 117//117 137//137
f 137//137 117//117 136//136
f 125//125 124//124 138//138
f 138//138 124//124 137//137
f 110//110 125//125 139//139
f 139//139 125//125 138//138
f 126//126 110//110 140//140
f 140//140 110//110 139//139
f 127//127 126//126 141//141
f 141//141 126//126 140//140
f 128//128 127//127 142//142
f 142//142 127//127 141//141
f 92//92 128//128 143//143
f 143//143 128//128 142//142
f 129//129 130//130 144//144
f 144//144 130//130 145//145
f 132//132 129//129 147//147
f 147//147 129//129 144//144
f 134//134 132//132 33//33
f 33//33 132//132 147//147
f 131//131 134//134 146//146
f 146//146 134//134 33//33
f 135//135 131//131 148//148
f 148//148 131//131 146//146
f 133//133 135//135 32//32
f 32//32 135//135 148//148
f 136//136 133//133 149//149
f 149//149 133//133 32//32
f 137//137 136//136 150//150
f 150//150 136//136 149//149
f 138//138 137//137 12//12
f 12//12 137//137 150//150
f 139//139 138//138 151//151
f 151//151 138//138 12//12
f 140//140 139//139 152//152
f 152//152 139//139 151//151
f 141//141 140//140 153//153
f 153//153 140//140 152//152
f 142//142 141//141 154//154
f 154//154 141//141 153//153
f 143//143 142//142 155//155
f 155//155 142//142 154//154
f 144//144 145//145 156//156
f 156//156 145//145 157//157
f 147//147 144//144 159//159
f 159//159 144//144 156//156
f 33//33 147//147 161//161
f 161//161 147//147 159//159
f 146//146 33//33 158//158
f 158//158 33//33 161//161
f 148//148 146//146 162//162
f 162//162 146//146 158//158
f 32//32 148//148 160//160
f 160//160 148//148 162//162
f 149//149 32//32 163//163
f 163//163 32//32 160//160
f 150//150 149//149 164//164
f 164//164 149//149 163//163
f 12//12 150//150 166//166
f 166//166 150//150 164//164
f 151//151 12//12 168//168
f 168//168 12//12 166//166
f 152//152 151//151 170//170
f 170//170 151//151 168//168
f 153//153 152//152 172//172
f 172//172 152//152 170//170
f 154//154 153//153 174//174
f 174//174 153//153 172//172
f 155//155 154//154 176//176
f 176//176 154//154 174//174
f 156//156 157//157 177//177
f 177//177 157//157 178//178
f 159//159 156//156 180//180
f 180//180 156//156 177//177
f 161//161 159//159 20//20
f 20//20 159//159 180//180
f 158//158 161//161 179//179
f 179//179 161//161 20//20
f 162//162 158//158 181//181
f 181//181 158//158 179//179
f 160//160 162//162 19//19
f 19//19 162//162 181//181
f 163//163 160//160 182//182
f 182//182 160//160 19//19
f 164//164 163//163 36//36
f 36//36 163//163 182//182
f 166//166 164//164 183//183
f 183//183 164//164 36//36
f 168//168 166//166 184//184
f 184//184 166//166 183//183
f 170//170 168//168 25//25
f 25//25 168//168 184//184
f 172//172 170//170 185//185
f 185//185 170//170 25//25
f 174//174 172//172 2//2
f 2//2 172//172 185//185
f 176//176 174//174 186//186
f 186//186 174//174 2//2
f 177//177 178//178 187//187
f 187//187 178//178 189//189
f 180//180 177//177 191//191
f 191//191 177//177 187//187
f 20//20 180//180 193//193
f 193//193 180//180 191//191
f 179//179 20//20 190//190
f 190//190 20//20 193//193
f 181//181 179//179 194//194
f 194//194 179//179 190//190
f 19//19 181//181 192//192
f 192//192 181//181 194//194
f 182//182 19//19 196//196
f 196//196 19//19 192//192
f 36//36 182//182 197//197
f 197//197 182//182 196//196
f 183//183 36//36 198//198
f 198//198 36//36 197//197
f 184//184 183//183 199//199
f 199//199 183//183 198//198
f 25//25 184//184 200//200
f 200//200 184//184 199//199
f 185//185 25//25 201//201
f 201//201 25//25 200//200
f 2//2 185//185 202//202
f 202//202 185//185 201//201
f 186//186 2//2 203//203
f 203//203 2//2 202//202
f 187//187 189//189 204//204
f 204//204 189//189 205//205
f 191//191 187//187 207//207
f 207//207 187//187 204//204
f 193//193 191//191 209//209
f 209//209 191//191 207//207
f 190//190 193//193 206//206
f 206//206 193//193 209//209
f 194//194 190//190 210//210
f 210//210 190//190 206//206
f 192//192 194//194 208//208
f 208//208 194//194 210//210
f 196//196 192//192 211//211
f 211//211 192//192 208//208
f 197//197 196//196 212//212
f 212//212 196//196 211//211
f 198//198 197//197 213//213
f 213//213 197//197 212//212
f 199//199 198//198 214//214
f 214//214 198//198 213//213
f 200//200 199//199 215//215
f 215//215 199//199 214//214
f 201//201 200//200 216//216
f 216//216 200//200 215//215
f 202//202 201//201 217//217
f 217//217 201//201 216//216
f 203//203 202//202 218//218
f 218//218 202//202 217//217
f 204//204 205//205 219//219
f 219//219 205//205 195//195
f 207//207 204//204 221//221
f 221//221 204//204 219//219
f 209//209 207//207 223//223
f 223//223 207//207 221//221
f 206//206 209//209 220//220
f 220//220 209//209 223//223
f 210//210 206//206 224//224
f 224//224 206//206 220//220
f 208//208 210//210 222//222
f 222//222 210//210 224//224
f 211//211 208//208 188//188
f 188//188 208//208 222//222
f 212//212 211//211 225//225
f 225//225 211//211 188//188
f 213//213 212//212 167//167
f 167//167 212//212 225//225
f 214//214 213//213 165//165
f 165//165 213//213 167//167
f 215//215 214//214 171//171
f 171//171 214//214 165//165
f 216//216 215//215 169//169
f 169//169 215//215 171//171
f 217//217 216//216 175//175
f 175//175 216//216 169//169
f 218//218 217//217 173//173
f 173//173 217//217 175//175
